<svg aria-hidden="true" style="position:absolute;width:0;height:0;overflow:hidden" xmlns="http://www.w3.org/2000/svg"><defs><symbol id="icon-close-solid" viewBox="0 0 20 20"><path d="M2.93 17.07A9.97 9.97 0 0 1-.123 9.877c0-5.523 4.477-10 10-10a9.968 9.968 0 0 1 7.19 3.05l.003.003a9.963 9.963 0 0 1 2.807 6.947c0 5.523-4.477 10-10 10-2.7 0-5.151-1.07-6.95-2.81l.003.003zM11.4 10l2.83-2.83-1.41-1.41L10 8.59 7.17 5.76 5.76 7.17 8.59 10l-2.83 2.83 1.41 1.41L10 11.41l2.83 2.83 1.41-1.41L11.41 10z"/></symbol></defs></svg>